<svg preserveAspectRatio="none" width="100%" height="100%" overflow="visible" style="display: block;" viewBox="0 0 20 21.3333" fill="none" xmlns="http://www.w3.org/2000/svg">
<g id="Group">
<path id="Vector" d="M19 16.3333C17.5267 16.3333 16.3333 15.14 16.3333 13.6667V7.33333C16.3333 3.836 13.4973 1 10 1C6.50267 1 3.66667 3.836 3.66667 7.33333V13.6667C3.66667 15.14 2.47333 16.3333 1 16.3333H19Z" stroke="var(--stroke-0, #A9A9A9)" stroke-width="2" stroke-linecap="round" stroke-linejoin="round"/>
<path id="Vector_2" d="M12.1173 18.9133C11.9907 18.7573 11.8013 18.6667 11.6 18.6667H8.40133C8.2 18.6667 8.01067 18.7573 7.884 18.9133C7.75733 19.0693 7.708 19.2747 7.74933 19.4707C7.98 20.5667 8.90667 21.3333 10.0013 21.3333C11.096 21.3333 12.0227 20.5667 12.2533 19.4707C12.2947 19.2747 12.244 19.0693 12.1173 18.9133Z" fill="var(--fill-0, #A9A9A9)"/>
</g>
</svg>
