<svg preserveAspectRatio="none" width="100%" height="100%" overflow="visible" style="display: block;" viewBox="0 0 20 21.3333" fill="none" xmlns="http://www.w3.org/2000/svg">
<g id="Group">
<path id="Vector" d="M5.66667 3.66667V1" stroke="var(--stroke-0, #A9A9A9)" stroke-width="2" stroke-linecap="round" stroke-linejoin="round"/>
<path id="Vector_2" d="M14.3333 3.66667V1" stroke="var(--stroke-0, #A9A9A9)" stroke-width="2" stroke-linecap="round" stroke-linejoin="round"/>
<path id="Vector_3" d="M16.3333 3.66667H3.66667C2.19391 3.66667 1 4.86057 1 6.33333V17.6667C1 19.1394 2.19391 20.3333 3.66667 20.3333H16.3333C17.8061 20.3333 19 19.1394 19 17.6667V6.33333C19 4.86057 17.8061 3.66667 16.3333 3.66667Z" stroke="var(--stroke-0, #A9A9A9)" stroke-width="2" stroke-linecap="round" stroke-linejoin="round"/>
<path id="Vector_4" d="M1 8.33333H19" stroke="var(--stroke-0, #A9A9A9)" stroke-width="2" stroke-linecap="round" stroke-linejoin="round"/>
<path id="Vector_5" d="M10 11C9.26533 11 8.66667 11.5987 8.66667 12.3333C8.66667 13.068 9.26533 13.6667 10 13.6667C10.7347 13.6667 11.3333 13.068 11.3333 12.3333C11.3333 11.5987 10.7347 11 10 11Z" fill="var(--fill-0, #A9A9A9)"/>
<path id="Vector_6" d="M14.6667 13.6667C15.4013 13.6667 16 13.068 16 12.3333C16 11.5987 15.4013 11 14.6667 11C13.932 11 13.3333 11.5987 13.3333 12.3333C13.3333 13.068 13.932 13.6667 14.6667 13.6667Z" fill="var(--fill-0, #A9A9A9)"/>
<path id="Vector_7" d="M10 15C9.26533 15 8.66667 15.5987 8.66667 16.3333C8.66667 17.068 9.26533 17.6667 10 17.6667C10.7347 17.6667 11.3333 17.068 11.3333 16.3333C11.3333 15.5987 10.7347 15 10 15Z" fill="var(--fill-0, #A9A9A9)"/>
<path id="Vector_8" d="M5.33333 15C4.59867 15 4 15.5987 4 16.3333C4 17.068 4.59867 17.6667 5.33333 17.6667C6.068 17.6667 6.66667 17.068 6.66667 16.3333C6.66667 15.5987 6.068 15 5.33333 15Z" fill="var(--fill-0, #A9A9A9)"/>
<path id="Vector_9" d="M14.6667 15C13.932 15 13.3333 15.5987 13.3333 16.3333C13.3333 17.068 13.932 17.6667 14.6667 17.6667C15.4013 17.6667 16 17.068 16 16.3333C16 15.5987 15.4013 15 14.6667 15Z" fill="var(--fill-0, #A9A9A9)"/>
</g>
</svg>
