<svg preserveAspectRatio="none" width="100%" height="100%" overflow="visible" style="display: block;" viewBox="0 0 21.3307 19.5896" fill="none" xmlns="http://www.w3.org/2000/svg">
<g id="Group">
<path id="Vector" d="M10.6667 12.7948C12.3235 12.7948 13.6667 11.4517 13.6667 9.79482C13.6667 8.13797 12.3235 6.79482 10.6667 6.79482C9.00981 6.79482 7.66667 8.13797 7.66667 9.79482C7.66667 11.4517 9.00981 12.7948 10.6667 12.7948Z" stroke="var(--stroke-0, #A9A9A9)" stroke-width="2" stroke-linecap="round" stroke-linejoin="round"/>
<path id="Vector_2" d="M18.9 7.50016L17.6613 7.06282C17.5253 6.71482 17.3693 6.36949 17.1773 6.03616C16.9853 5.70282 16.764 5.39616 16.5307 5.10416L16.7707 3.81349C16.9373 2.91882 16.5213 2.01482 15.7333 1.56016L15.2653 1.28949C14.476 0.833491 13.4867 0.925491 12.7947 1.51749L11.8013 2.36682C11.0547 2.25216 10.2907 2.25216 9.53067 2.36682L8.53733 1.51616C7.84533 0.924158 6.85467 0.832158 6.06667 1.28816L5.59867 1.55882C4.80933 2.01349 4.39467 2.91749 4.56133 3.81216L4.80133 5.09883C4.32133 5.69749 3.94 6.36016 3.66533 7.06416L2.43333 7.49883C1.57467 7.80149 1 8.61349 1 9.52416V10.0642C1 10.9748 1.57467 11.7868 2.43333 12.0895L3.672 12.5268C3.808 12.8748 3.96267 13.2188 4.156 13.5522C4.34933 13.8855 4.56933 14.1922 4.80267 14.4855L4.56133 15.7762C4.39467 16.6708 4.81067 17.5748 5.59867 18.0295L6.06667 18.3002C6.856 18.7562 7.84533 18.6642 8.53733 18.0722L9.53067 17.2215C10.276 17.3362 11.04 17.3362 11.7987 17.2215L12.7933 18.0735C13.4853 18.6655 14.476 18.7575 15.264 18.3015L15.732 18.0308C16.5213 17.5748 16.936 16.6722 16.7693 15.7775L16.5293 14.4895C17.008 13.8908 17.3907 13.2295 17.664 12.5255L18.8973 12.0908C19.756 11.7882 20.3307 10.9762 20.3307 10.0655V9.52549C20.3307 8.61483 19.756 7.80283 18.8973 7.50016H18.9Z" stroke="var(--stroke-0, #A9A9A9)" stroke-width="2" stroke-linecap="round" stroke-linejoin="round"/>
</g>
</svg>
