<svg preserveAspectRatio="none" width="100%" height="100%" overflow="visible" style="display: block;" viewBox="0 0 24 15" fill="none" xmlns="http://www.w3.org/2000/svg">
<g id="Frame" clip-path="url(#clip0_0_78)">
<path id="Vector" d="M13.7604 0.000294291C12.6049 0.00265779 11.4709 0.30413 10.4748 0.873756C9.47863 1.44338 8.65628 2.26064 8.09217 3.24161C7.60659 3.01148 7.07366 2.89154 6.53352 2.89082C5.68703 2.89298 4.86885 3.18758 4.22491 3.72207C3.58098 4.25656 3.15316 4.99617 3.01777 5.80901C2.12361 6.1732 1.36004 6.78633 0.82301 7.57137C0.285977 8.35641 -0.00056193 9.27834 -0.00060507 10.2213C0.000597988 11.4897 0.519573 12.7056 1.44221 13.6019C2.36485 14.4981 3.61562 15.0012 4.9195 15.0006C5.12587 14.9989 5.33191 14.9843 5.53637 14.957H19.2073C19.2791 14.9621 19.351 14.9656 19.423 14.9673C19.4915 14.9654 19.56 14.962 19.6284 14.957H19.9557V14.9335C21.0688 14.8054 22.0951 14.2827 22.8401 13.4643C23.5851 12.646 23.9971 11.5889 23.9979 10.4935V10.4847C23.9953 9.44435 23.6218 8.43741 22.9417 7.63711C22.2616 6.83681 21.3174 6.29318 20.2716 6.09976C20.2094 4.46084 19.496 2.90929 18.2816 1.77166C17.0672 0.634027 15.4464 -0.000974793 13.7604 0.000294291Z" fill="url(#paint0_linear_0_78)"/>
</g>
<defs>
<linearGradient id="paint0_linear_0_78" x1="24.0711" y1="10.5021" x2="-0.00734118" y2="10.1607" gradientUnits="userSpaceOnUse">
<stop stop-color="#3E82F4"/>
<stop offset="1" stop-color="#93DCF7"/>
</linearGradient>
<clipPath id="clip0_0_78">
<rect width="24" height="15" fill="white"/>
</clipPath>
</defs>
</svg>
