<svg preserveAspectRatio="none" width="100%" height="100%" overflow="visible" style="display: block;" viewBox="0 0 24 24" fill="none" xmlns="http://www.w3.org/2000/svg">
<g id="Frame">
<g clip-path="url(#clip0_0_65)">
<path id="Vector" d="M0 0H23.991V23.991H0V0Z" fill="var(--fill-0, black)"/>
<path id="Vector_2" d="M13.2821 3.86953L13.2758 7.46588L13.2695 11.0622L12.9736 10.2274L12.973 10.2258L12.5907 18.2322C12.9667 19.2938 13.168 19.8606 13.1703 19.8628C13.1732 19.8658 13.3875 19.8788 13.6463 19.8916C14.4307 19.9305 15.4027 20.0138 16.14 20.1055C16.3107 20.1267 16.4576 20.1376 16.4665 20.1296C16.4753 20.1218 16.4801 16.46 16.4772 11.9924L16.4718 3.86953H13.2821ZM7.51294 3.85875V11.9899C7.51294 16.462 7.51734 20.1254 7.52269 20.1308C7.52803 20.1361 7.80497 20.1099 8.13816 20.0726C8.47125 20.0353 8.93175 19.9889 9.16134 19.9695C9.51347 19.9398 10.5648 19.8722 10.6865 19.8714C10.7219 19.8713 10.7242 19.6886 10.7293 16.4275L10.7347 12.9837L10.9891 13.7034L11.0791 13.9578L11.4613 5.95331L11.33 5.58206C11.1338 5.02719 10.9374 4.47238 10.7409 3.91762L10.7198 3.85875H7.51294Z" fill="var(--fill-0, #B1060F)" stroke="var(--stroke-0, black)" stroke-width="2.956"/>
<path id="Vector_3" d="M7.51294 3.85875V8.42297L10.7282 16.952C10.7286 16.7565 10.7289 16.6509 10.7293 16.4275L10.7348 12.9837L10.9891 13.7034C12.4051 17.7101 13.1658 19.8583 13.1703 19.8628C13.1732 19.8658 13.3875 19.8788 13.6463 19.8916C14.4307 19.9305 15.4027 20.0138 16.14 20.1055C16.3107 20.1267 16.4576 20.1376 16.4665 20.1296C16.4725 20.1242 16.4766 18.3287 16.4776 15.7958L13.2773 6.59522L13.2758 7.46588L13.2695 11.0622L12.9736 10.2274C12.6845 9.41166 12.4914 8.86613 11.33 5.58206C11.1338 5.02719 10.9374 4.47238 10.7409 3.91762L10.7198 3.85875H7.51294Z" fill="url(#paint0_radial_0_65)"/>
<path id="Vector_4" d="M7.51303 3.85875L10.7347 12.9878V12.9837L10.9891 13.7034C12.4051 17.7101 13.1658 19.8583 13.1703 19.8628C13.1732 19.8658 13.3875 19.8787 13.6463 19.8916C14.4307 19.9305 15.4027 20.0138 16.14 20.1055C16.3099 20.1266 16.4559 20.1374 16.4662 20.1297L13.2694 11.0606V11.0622L12.9735 10.2274C12.6844 9.41166 12.4913 8.86612 11.3299 5.58206C11.0175 4.69894 10.7525 3.95006 10.7408 3.91762L10.7197 3.85875H7.51303Z" fill="var(--fill-0, #E50914)"/>
<path id="Vector_5" d="M14.5461 19.3216C14.5484 19.3275 14.5502 19.3322 14.551 19.3343C14.5518 19.3364 14.5517 19.3384 14.552 19.3392C14.5516 19.338 14.5506 19.3355 14.5491 19.3314C14.5472 19.3262 14.545 19.3196 14.5422 19.3119C14.5442 19.3167 14.5455 19.3201 14.5461 19.3216ZM14.9944 5.34801L14.9993 11.9935C15.0007 14.2266 15.0002 16.2582 14.9983 17.7318C14.9979 18.0093 14.9968 18.267 14.9963 18.5023C14.7401 18.4806 14.4826 18.462 14.2336 18.4457C14.1871 18.3144 14.1364 18.1693 14.0803 18.0111L14.4094 11.1224L14.7473 11.0648L14.7541 7.46812L14.7581 5.34801H14.9944ZM9.67505 5.33629C9.76215 5.58243 9.84973 5.8284 9.93677 6.07457L9.96997 6.17125L9.64868 12.9144L9.25708 12.9818L9.25122 16.4252C9.24979 17.3295 9.24513 17.9937 9.24341 18.4818C9.16088 18.4879 9.09011 18.492 9.03735 18.4964H9.03638C9.02301 18.4976 9.00901 18.4991 8.99438 18.5004C8.99401 18.266 8.99374 18.0097 8.99341 17.7337C8.99164 16.259 8.99048 14.2253 8.99048 11.9896V5.33629H9.67505Z" fill="var(--fill-0, #B1060F)" stroke="var(--stroke-0, #E50914)" stroke-width="2.956"/>
<path id="Vector_6" d="M7.51294 3.85875V8.42297L10.7282 16.952C10.7286 16.7565 10.7289 16.6509 10.7293 16.4275L10.7348 12.9837L10.9891 13.7034C12.4051 17.7101 13.1658 19.8583 13.1703 19.8628C13.1732 19.8658 13.3875 19.8788 13.6463 19.8916C14.4307 19.9305 15.4027 20.0138 16.14 20.1055C16.3107 20.1267 16.4576 20.1376 16.4665 20.1296C16.4725 20.1242 16.4766 18.3287 16.4776 15.7958L13.2773 6.59522L13.2758 7.46588L13.2695 11.0622L12.9736 10.2274C12.6845 9.41166 12.4914 8.86613 11.33 5.58206C11.1338 5.02719 10.9374 4.47238 10.7409 3.91762L10.7198 3.85875H7.51294Z" fill="url(#paint1_radial_0_65)"/>
<path id="Vector_7" d="M7.51303 3.85875L10.7347 12.9878V12.9837L10.9891 13.7034C12.4051 17.7101 13.1658 19.8583 13.1703 19.8628C13.1732 19.8658 13.3875 19.8787 13.6463 19.8916C14.4307 19.9305 15.4027 20.0138 16.14 20.1055C16.3099 20.1266 16.4559 20.1374 16.4662 20.1297L13.2694 11.0606V11.0622L12.9735 10.2274C12.6844 9.41166 12.4913 8.86612 11.3299 5.58206C11.0175 4.69894 10.7525 3.95006 10.7408 3.91762L10.7197 3.85875H7.51303Z" fill="var(--fill-0, #E50914)"/>
</g>
</g>
<defs>
<radialGradient id="paint0_radial_0_65" cx="0" cy="0" r="1" gradientUnits="userSpaceOnUse" gradientTransform="translate(11.8465 6.57681) scale(6.31453 6.31458)">
<stop/>
<stop offset="1" stop-opacity="0"/>
</radialGradient>
<radialGradient id="paint1_radial_0_65" cx="0" cy="0" r="1" gradientUnits="userSpaceOnUse" gradientTransform="translate(11.8465 6.57681) scale(6.31453 6.31458)">
<stop/>
<stop offset="1" stop-opacity="0"/>
</radialGradient>
<clipPath id="clip0_0_65">
<rect width="24" height="24" rx="12" fill="white"/>
</clipPath>
</defs>
</svg>
