<svg preserveAspectRatio="none" width="100%" height="100%" overflow="visible" style="display: block;" viewBox="0 0 24 24" fill="none" xmlns="http://www.w3.org/2000/svg">
<g id="Frame" clip-path="url(#clip0_0_80)">
<path id="Vector" d="M20.9672 3.225C20.9672 0.646875 18.5156 0 16.5797 0V0.389063C17.7422 0.389063 18.6422 0.778125 18.6422 1.67812C18.6094 2.43281 17.9672 3.01406 17.2125 2.98125C17.1703 2.98125 17.1328 2.97656 17.0906 2.97188C15.6328 2.81719 14.1984 2.47031 12.8344 1.94063C11.3812 1.39219 9.8625 1.04531 8.32031 0.909375C5.99531 0.810937 4.03125 2.625 3.9375 4.95C3.9375 4.97812 3.9375 5.00156 3.93281 5.02969C3.91406 6.29063 4.6875 7.425 5.86875 7.87031L6 7.6125C5.50781 7.37812 5.19844 6.86719 5.22656 6.32344C5.33906 5.4375 6.14531 4.80469 7.03125 4.90312C8.66719 5.08125 10.2703 5.475 11.8031 6.06562C13.3688 6.51562 14.9625 6.8625 16.575 7.09687V11.0953L14.6391 12.7734V12.9047L16.575 14.5828V20.1328C15.5953 20.6906 14.475 20.9578 13.35 20.9062C11.4469 21.0047 9.6 20.25 8.31562 18.8438L13.6078 16.2609V7.22344L7.15781 10.0641C7.87969 8.5125 9.04688 7.20937 10.5141 6.32344L10.3828 6.06562C6.23438 7.07344 3.23906 10.6969 3.03281 14.9672C3.04687 19.95 7.08281 23.9859 12.0656 24C16.7016 24.0656 20.5125 20.3625 20.5828 15.7313V15.6141H20.325C19.6406 17.2594 18.4734 18.6562 16.9687 19.6125V14.3203L19.0312 12.6422V12.5156L17.0953 10.8375V6.96563C19.1297 7.06875 20.8594 5.49844 20.9625 3.46875C20.9672 3.38906 20.9672 3.30469 20.9672 3.225ZM9.74063 17.4188L8.19375 18.1922C7.17188 16.7672 6.67031 15.0375 6.77344 13.2891C6.76406 12.3703 6.89531 11.4562 7.1625 10.5797L9.87188 9.41719L9.74063 17.4188Z" fill="var(--fill-0, black)"/>
</g>
<defs>
<clipPath id="clip0_0_80">
<rect width="24" height="24" fill="white"/>
</clipPath>
</defs>
</svg>
